<svg width="271" height="61" viewBox="0 0 271 61" fill="none" xmlns="http://www.w3.org/2000/svg">
<g clip-path="url(#clip0_3_9)">
<path d="M5.49473 15.3783C5.49861 18.0016 6.54188 20.5163 8.39587 22.3712C10.2499 24.2261 12.7633 25.2699 15.3852 25.2738H30.7705V30.7712H15.4439C11.3646 30.7674 7.4536 29.1444 4.56915 26.2585C1.6847 23.3726 0.0625037 19.4596 0.0586243 15.3783C0.062508 11.2984 1.68517 7.38686 4.57004 4.5033C7.45491 1.61973 11.366 -1.8503e-06 15.4439 0H30.8291V5.48285H15.4439C14.1412 5.47899 12.8505 5.73187 11.6455 6.22707C10.4405 6.72228 9.34478 7.4501 8.42091 8.36898C7.49705 9.28786 6.7631 10.3798 6.26103 11.5825C5.75896 12.7851 5.49857 14.075 5.49473 15.3783Z" fill="black"/>
<path d="M69.9809 15.3783C69.977 19.4596 68.3548 23.3726 65.4703 26.2585C62.5859 29.1444 58.6749 30.7674 54.5956 30.7712C50.5164 30.7674 46.6054 29.1444 43.7209 26.2585C40.8365 23.3726 39.2143 19.4596 39.2104 15.3783C39.2143 11.2984 40.8369 7.38686 43.7218 4.5033C46.6067 1.61973 50.5177 -1.8503e-06 54.5956 0C58.6735 -1.8503e-06 62.5846 1.61973 65.4694 4.5033C68.3543 7.38686 69.977 11.2984 69.9809 15.3783ZM64.4861 15.3783C64.4784 12.7562 63.4339 10.2438 61.5807 8.38969C59.7276 6.53561 57.2164 5.49058 54.5956 5.48285C51.9749 5.49058 49.4637 6.53561 47.6105 8.38969C45.7574 10.2438 44.7128 12.7562 44.7051 15.3783C44.709 18.0016 45.7523 20.5163 47.6063 22.3712C49.4603 24.2261 51.9737 25.2699 54.5956 25.2738C57.2176 25.2699 59.731 24.2261 61.585 22.3712C63.439 20.5163 64.4823 18.0016 64.4861 15.3783Z" fill="black"/>
<path d="M111.125 20.9637C111.122 23.5636 110.087 26.0559 108.25 27.8944C106.412 29.7328 103.921 30.7673 101.323 30.7712H80.3549V-0.0146484H99.7403C101.94 -0.0107874 104.049 0.864164 105.606 2.419C107.162 3.97383 108.041 6.08204 108.048 8.28284C108.056 9.87492 107.598 11.4345 106.73 12.7688C108.083 13.6641 109.193 14.8815 109.96 16.3118C110.727 17.742 111.128 19.3405 111.125 20.9637ZM85.8496 11.1122H99.7843C100.529 11.1084 101.243 10.8106 101.769 10.2835C102.296 9.75652 102.594 9.04283 102.598 8.29751C102.594 7.55219 102.296 6.8385 101.769 6.31148C101.243 5.78445 100.529 5.48668 99.7843 5.48283H85.8496V11.1122ZM101.323 25.2298C102.465 25.2298 103.561 24.7757 104.369 23.9674C105.177 23.1591 105.631 22.0628 105.631 20.9197C105.631 19.7767 105.177 18.6803 104.369 17.8721C103.561 17.0638 102.465 16.6097 101.323 16.6097H85.8496V25.2737H101.323V25.2298Z" fill="#1E00FF"/>
<path d="M146.292 25.3618L149.105 30.8592H142.922L140.108 25.3618L137.178 19.6004L137.046 19.3365C136.562 18.5327 135.879 17.8675 135.062 17.4053C134.246 16.943 133.324 16.6993 132.386 16.6977H126.892V30.8885H121.397V0.102664H140.826C141.914 0.098386 142.993 0.30997 143.999 0.725156C145.005 1.14034 145.919 1.75089 146.687 2.52154C147.459 3.28968 148.07 4.20373 148.485 5.21047C148.9 6.21721 149.111 7.29651 149.105 8.38552C149.104 9.97648 148.648 11.534 147.791 12.8743C146.935 14.2146 145.713 15.2818 144.27 15.9501C143.521 16.3024 142.719 16.5255 141.896 16.6098L146.292 25.3618ZM140.841 11.2002C141.235 11.1995 141.625 11.1146 141.984 10.951C142.479 10.7288 142.9 10.3688 143.196 9.91388C143.492 9.45898 143.651 8.92841 143.654 8.38552C143.647 7.62858 143.348 6.90365 142.819 6.36244C142.288 5.85065 141.578 5.56663 140.841 5.57084H126.906V11.2442L140.841 11.2002Z" fill="#1E00FF"/>
<path d="M190.293 15.3783C190.29 19.4596 188.667 23.3726 185.783 26.2585C182.898 29.1444 178.987 30.7674 174.908 30.7712C170.829 30.7674 166.918 29.1444 164.033 26.2585C161.149 23.3726 159.527 19.4596 159.523 15.3783C159.527 11.2984 161.149 7.38686 164.034 4.5033C166.919 1.61973 170.83 -1.8503e-06 174.908 0C178.986 -1.8503e-06 182.897 1.61973 185.782 4.5033C188.667 7.38686 190.29 11.2984 190.293 15.3783ZM184.799 15.3783C184.791 12.7562 183.746 10.2438 181.893 8.38969C180.04 6.53561 177.529 5.49058 174.908 5.48285C172.287 5.49058 169.776 6.53561 167.923 8.38969C166.07 10.2438 165.025 12.7562 165.018 15.3783C165.022 18.0016 166.065 20.5163 167.919 22.3712C169.773 24.2261 172.286 25.2699 174.908 25.2738C177.53 25.2699 180.044 24.2261 181.898 22.3712C183.752 20.5163 184.795 18.0016 184.799 15.3783Z" fill="#1E00FF"/>
<path d="M217.987 12.3437L231.306 30.7712H224.537L213.899 16.1113L206.118 23.192V30.8005H200.624V0.0146484H206.118V15.7448L210.646 11.6107L214.734 7.87235L223.306 0.0146484H231.438L217.987 12.3437Z" fill="#1E00FF"/>
<path d="M245.724 8.29749V11.2295H265.505V16.727H245.724V22.5909C245.728 23.3363 246.026 24.0499 246.552 24.577C247.079 25.104 247.793 25.4018 248.538 25.4057H271V30.9031H248.538C246.341 30.8954 244.236 30.0157 242.687 28.4573C241.138 26.8989 240.27 24.789 240.273 22.5909V8.42943C240.273 6.23386 241.143 4.12781 242.692 2.57257C244.241 1.01732 246.343 0.139655 248.538 0.131897H271V5.61474H248.538C247.815 5.61752 247.12 5.89705 246.597 6.39597C246.074 6.89489 245.762 7.57532 245.724 8.29749Z" fill="#1E00FF"/>
<path d="M87.2417 60.6335C86.7424 60.4228 86.3112 60.0777 85.9962 59.6366C85.6855 59.2116 85.5209 58.6972 85.5273 58.1706H86.9925C87.0337 58.6297 87.2424 59.0577 87.5787 59.3727C87.9856 59.7199 88.5098 59.8982 89.0439 59.8712C89.5749 59.8937 90.0959 59.7217 90.5092 59.3874C90.6919 59.2434 90.8376 59.0579 90.9345 58.8463C91.0313 58.6347 91.0763 58.4031 91.066 58.1706C91.0742 57.8249 90.9601 57.4874 90.7436 57.2177C90.5268 56.9664 90.2494 56.7747 89.9377 56.6606C89.5113 56.4988 89.0759 56.3617 88.6337 56.2502C88.0795 56.1136 87.5359 55.9373 87.0072 55.7224C86.5956 55.536 86.2378 55.2486 85.9669 54.8868C85.6736 54.4555 85.5248 53.9422 85.5419 53.4208C85.5307 52.9002 85.679 52.3886 85.9669 51.9548C86.2545 51.5117 86.6677 51.1646 87.1537 50.9579C87.7127 50.7148 88.3173 50.5948 88.9267 50.6061C89.7677 50.5666 90.5964 50.8205 91.2711 51.3244C91.5711 51.5487 91.8193 51.8351 91.9988 52.1639C92.1783 52.4928 92.285 52.8564 92.3114 53.2302H90.8462C90.7823 52.8171 90.562 52.4443 90.2308 52.1894C89.809 51.8754 89.2904 51.7198 88.7655 51.7496C88.2761 51.731 87.795 51.8811 87.4028 52.1747C87.2255 52.3218 87.0854 52.5086 86.9937 52.72C86.9021 52.9314 86.8615 53.1615 86.8753 53.3915C86.8617 53.7222 86.9713 54.0461 87.183 54.3004C87.3973 54.5344 87.6632 54.7151 87.9596 54.8281C88.3862 54.9936 88.8216 55.1356 89.2637 55.2533C89.8185 55.3938 90.3621 55.5751 90.8901 55.7957C91.3018 55.9886 91.663 56.2747 91.9451 56.6313C92.2589 57.0811 92.4136 57.6229 92.3847 58.1706C92.3959 58.6871 92.2585 59.1959 91.9891 59.6366C91.7042 60.0944 91.2986 60.4647 90.8169 60.7068C90.2474 60.9865 89.6197 61.1272 88.9853 61.1173C88.3763 61.0822 87.7818 60.9173 87.2417 60.6335Z" fill="black"/>
<path d="M111.184 50.6794L107.858 57.0418V60.8974H106.524V57.0418L103.184 50.6794H104.649L107.169 55.8543L109.689 50.6794H111.184Z" fill="black"/>
<path d="M123.683 60.6335C123.183 60.4228 122.752 60.0777 122.437 59.6366C122.127 59.2116 121.962 58.6972 121.968 58.1706H123.434C123.475 58.6297 123.683 59.0577 124.02 59.3727C124.427 59.7199 124.951 59.8982 125.485 59.8712C126.016 59.8937 126.537 59.7217 126.95 59.3874C127.133 59.2434 127.279 59.0579 127.375 58.8463C127.472 58.6347 127.517 58.4031 127.507 58.1706C127.515 57.8249 127.401 57.4874 127.185 57.2177C126.968 56.9664 126.69 56.7747 126.379 56.6606C125.952 56.4988 125.517 56.3617 125.075 56.2502C124.521 56.1136 123.977 55.9373 123.448 55.7224C123.037 55.536 122.679 55.2486 122.408 54.8868C122.115 54.4555 121.966 53.9422 121.983 53.4208C121.972 52.9002 122.12 52.3886 122.408 51.9548C122.696 51.5117 123.109 51.1646 123.595 50.9579C124.153 50.7135 124.758 50.5934 125.368 50.6061C126.209 50.5666 127.037 50.8205 127.712 51.3244C128.01 51.5507 128.257 51.8375 128.436 52.166C128.615 52.4944 128.723 52.8571 128.752 53.2302H127.287C127.218 52.8191 126.999 52.4482 126.672 52.1894C126.25 51.8754 125.731 51.7198 125.207 51.7496C124.717 51.731 124.236 51.8811 123.844 52.1747C123.667 52.3218 123.526 52.5086 123.435 52.72C123.343 52.9314 123.303 53.1615 123.316 53.3915C123.303 53.7222 123.412 54.0461 123.624 54.3004C123.838 54.5344 124.104 54.7151 124.401 54.8281C124.827 54.9936 125.263 55.1356 125.705 55.2533C126.259 55.3938 126.803 55.5751 127.331 55.7957C127.743 55.9886 128.104 56.2747 128.386 56.6313C128.7 57.0811 128.855 57.6229 128.826 58.1706C128.837 58.6871 128.7 59.1959 128.43 59.6366C128.145 60.0944 127.74 60.4647 127.258 60.7068C126.688 60.9865 126.061 61.1272 125.426 61.1173C124.817 61.0822 124.223 60.9173 123.683 60.6335Z" fill="black"/>
<path d="M146.819 50.6794V51.7642H144.035V60.8974H142.702V51.7642H139.903V50.6794H146.819Z" fill="black"/>
<path d="M159.464 51.7642V55.18H163.186V56.2795H159.464V59.7979H163.626V60.8974H158.131V50.6354H163.626V51.7349L159.464 51.7642Z" fill="black"/>
<path d="M185.678 50.7527V60.8974H184.344V53.3328L180.974 60.8974H180.037L176.623 53.3182V60.8974H175.289V50.7527H176.754L180.505 59.1382L184.257 50.7527H185.678Z" fill="black"/>
</g>
<defs>
<clipPath id="clip0_3_9">
<rect width="271" height="61" fill="white"/>
</clipPath>
</defs>
</svg>
